<svg width="1290" height="375" fill="none" xmlns="http://www.w3.org/2000/svg"><path d="M110.449 216.74h53.502c13.891 0 26.156 2.816 36.793 8.448 10.638 5.506 18.898 13.266 24.78 23.277 5.882 9.887 8.823 21.213 8.823 33.978 0 12.766-2.941 24.154-8.823 34.166-5.882 9.887-14.142 17.646-24.78 23.278-10.637 5.507-22.902 8.26-36.793 8.26h-53.502V216.74zM163.2 336.133c11.513 0 21.588-2.253 30.223-6.759 8.635-4.63 15.331-10.95 20.087-18.96 4.755-8.134 7.133-17.458 7.133-27.971 0-10.512-2.378-19.773-7.133-27.783-4.756-8.134-11.452-14.454-20.087-18.96-8.635-4.63-18.71-6.946-30.223-6.946h-38.859v107.379H163.2zm159.785 13.14c-13.016 0-24.842-2.878-35.48-8.635-10.512-5.882-18.772-13.892-24.779-24.029-5.882-10.137-8.823-21.525-8.823-34.166 0-12.64 2.941-24.028 8.823-34.165 6.007-10.137 14.267-18.084 24.779-23.841 10.638-5.882 22.464-8.823 35.48-8.823 13.015 0 24.717 2.878 35.104 8.635 10.513 5.757 18.773 13.766 24.78 24.029 6.007 10.137 9.011 21.525 9.011 34.165 0 12.641-3.004 24.092-9.011 34.354-6.007 10.137-14.267 18.084-24.78 23.841-10.387 5.757-22.089 8.635-35.104 8.635zm0-12.39c10.387 0 19.774-2.315 28.159-6.945 8.385-4.756 14.955-11.264 19.711-19.524 4.755-8.385 7.133-17.708 7.133-27.971 0-10.262-2.378-19.523-7.133-27.783-4.756-8.385-11.326-14.892-19.711-19.523-8.385-4.756-17.772-7.133-28.159-7.133s-19.836 2.377-28.346 7.133c-8.385 4.631-15.018 11.138-19.899 19.523-4.756 8.26-7.134 17.521-7.134 27.783 0 10.263 2.378 19.586 7.134 27.971 4.881 8.26 11.514 14.768 19.899 19.524 8.51 4.63 17.959 6.945 28.346 6.945zM559.492 216.74v131.407h-13.328V243.021l-51.624 88.418h-6.571l-51.624-87.854v104.562h-13.328V216.74h11.451l57.068 97.429 56.505-97.429h11.451zm100.259 132.533c-13.015 0-24.842-2.878-35.48-8.635-10.512-5.882-18.772-13.892-24.779-24.029-5.882-10.137-8.823-21.525-8.823-34.166 0-12.64 2.941-24.028 8.823-34.165 6.007-10.137 14.267-18.084 24.779-23.841 10.638-5.882 22.465-8.823 35.48-8.823 13.016 0 24.717 2.878 35.105 8.635 10.512 5.757 18.772 13.766 24.779 24.029 6.007 10.137 9.011 21.525 9.011 34.165 0 12.641-3.004 24.092-9.011 34.354-6.007 10.137-14.267 18.084-24.779 23.841-10.388 5.757-22.089 8.635-35.105 8.635zm0-12.39c10.388 0 19.774-2.315 28.159-6.945 8.385-4.756 14.955-11.264 19.711-19.524 4.756-8.385 7.133-17.708 7.133-27.971 0-10.262-2.377-19.523-7.133-27.783-4.756-8.385-11.326-14.892-19.711-19.523-8.385-4.756-17.771-7.133-28.159-7.133-10.387 0-19.836 2.377-28.346 7.133-8.385 4.631-15.018 11.138-19.899 19.523-4.755 8.26-7.133 17.521-7.133 27.783 0 10.263 2.378 19.586 7.133 27.971 4.881 8.26 11.514 14.768 19.899 19.524 8.51 4.63 17.959 6.945 28.346 6.945zm136.263 12.39c-9.762 0-19.148-1.564-28.159-4.693-8.885-3.129-15.768-7.259-20.649-12.39l5.444-10.7c4.755 4.756 11.075 8.635 18.96 11.639a70.631 70.631 0 0024.404 4.318c11.764 0 20.587-2.128 26.469-6.383 5.882-4.38 8.823-10.012 8.823-16.895 0-5.256-1.627-9.449-4.881-12.578-3.129-3.128-7.008-5.506-11.639-7.133-4.63-1.752-11.075-3.63-19.335-5.632-9.887-2.503-17.771-4.881-23.653-7.133-5.882-2.378-10.951-5.945-15.206-10.701-4.13-4.755-6.195-11.201-6.195-19.335 0-6.633 1.752-12.64 5.256-18.022 3.504-5.506 8.886-9.887 16.145-13.14 7.258-3.254 16.269-4.881 27.032-4.881 7.509 0 14.83 1.064 21.963 3.191 7.259 2.002 13.517 4.818 18.773 8.448l-4.693 11.075c-5.507-3.629-11.389-6.32-17.646-8.072-6.258-1.877-12.39-2.816-18.397-2.816-11.514 0-20.212 2.253-26.094 6.758-5.757 4.381-8.635 10.075-8.635 17.083 0 5.257 1.564 9.512 4.693 12.766 3.254 3.128 7.259 5.569 12.014 7.321 4.881 1.627 11.389 3.441 19.524 5.444 9.636 2.378 17.395 4.755 23.277 7.133 6.007 2.253 11.076 5.757 15.206 10.513 4.13 4.63 6.195 10.95 6.195 18.96 0 6.633-1.815 12.703-5.444 18.209-3.504 5.382-8.948 9.699-16.332 12.953-7.384 3.129-16.457 4.693-27.22 4.693zm162.05-68.894c8.635 1.877 15.268 5.631 19.898 11.263 4.756 5.507 7.134 12.64 7.134 21.4 0 11.264-4.193 19.962-12.578 26.094-8.26 6.007-20.524 9.011-36.794 9.011h-60.447V216.74h56.693c14.642 0 25.968 2.941 33.978 8.823 8.135 5.882 12.202 14.205 12.202 24.967 0 7.259-1.815 13.454-5.444 18.585-3.504 5.006-8.385 8.761-14.642 11.264zm-68.895-52.188v47.682h41.862c10.638 0 18.835-2.002 24.592-6.007 5.757-4.13 8.635-10.075 8.635-17.834s-2.878-13.641-8.635-17.646c-5.757-4.13-13.954-6.195-24.592-6.195h-41.862zm46.368 108.505c11.764 0 20.649-2.003 26.656-6.007 6.008-4.005 9.011-10.263 9.011-18.773 0-16.394-11.889-24.592-35.667-24.592h-46.368v49.372h46.368zm138.713 12.577c-13.02 0-24.85-2.878-35.48-8.635-10.52-5.882-18.78-13.892-24.78-24.029-5.88-10.137-8.83-21.525-8.83-34.166 0-12.64 2.95-24.028 8.83-34.165 6-10.137 14.26-18.084 24.78-23.841 10.63-5.882 22.46-8.823 35.48-8.823 13.01 0 24.71 2.878 35.1 8.635 10.51 5.757 18.77 13.766 24.78 24.029 6.01 10.137 9.01 21.525 9.01 34.165 0 12.641-3 24.092-9.01 34.354-6.01 10.137-14.27 18.084-24.78 23.841-10.39 5.757-22.09 8.635-35.1 8.635zm0-12.39c10.38 0 19.77-2.315 28.16-6.945 8.38-4.756 14.95-11.264 19.71-19.524 4.75-8.385 7.13-17.708 7.13-27.971 0-10.262-2.38-19.523-7.13-27.783-4.76-8.385-11.33-14.892-19.71-19.523-8.39-4.756-17.78-7.133-28.16-7.133-10.39 0-19.84 2.377-28.35 7.133-8.38 4.631-15.02 11.138-19.9 19.523-4.75 8.26-7.13 17.521-7.13 27.783 0 10.263 2.38 19.586 7.13 27.971 4.88 8.26 11.52 14.768 19.9 19.524 8.51 4.63 17.96 6.945 28.35 6.945zm189.76 11.264l-30.03-42.238a95.44 95.44 0 01-10.52.563h-35.29v41.675h-13.89V216.74h49.18c16.77 0 29.91 4.005 39.42 12.014 9.52 8.01 14.27 19.023 14.27 33.04 0 10.262-2.63 18.96-7.88 26.093-5.13 7.009-12.52 12.077-22.15 15.206l32.1 45.054h-15.21zm-40.92-53.501c13.01 0 22.96-2.879 29.85-8.636 6.88-5.757 10.32-13.829 10.32-24.216 0-10.638-3.44-18.773-10.32-24.404-6.89-5.757-16.84-8.636-29.85-8.636h-34.92v65.892h34.92z" fill="#F5F5F6"/><path d="M72.201 348.396H0V130.889L280.69 0l280.075 130.601h.001l-.001 46.919h-12.034v-39.253L280.687 13.276 12.034 138.55v197.812H72.2v12.033z" fill="#8DB338"/></svg>