<svg xmlns="http://www.w3.org/2000/svg" xmlns:xlink="http://www.w3.org/1999/xlink"><defs>
<clipPath id="clip0_2588_10920">
<rect width="24" height="24" fill="white"/>
</clipPath>

<clipPath id="clip0_2765_13574">
<rect width="24" height="24" fill="white"/>
</clipPath>

<clipPath id="clip0_4240_16562">
<rect width="40" height="42" fill="white"/>
</clipPath>
</defs><symbol id="arrows" viewBox="0 0 24 24">
<path d="M16.05 12.05L21 17L16.05 21.95L14.636 20.536L17.172 17.999L4 18V16H17.172L14.636 13.464L16.05 12.05ZM7.95 2.05L9.364 3.464L6.828 6H20V8H6.828L9.364 10.536L7.95 11.95L3 7L7.95 2.05Z"/>
</symbol><symbol id="back" viewBox="0 0 24 24"><g fill="none">
<path d="M11 20L1 12L11 4V9C16.523 9 21 13.477 21 19C21 19.273 20.99 19.543 20.968 19.81C19.505 17.036 16.638 15.119 13.313 15.005L13 15H11V20ZM9 13H13.034L13.381 13.007C14.666 13.05 15.905 13.317 17.057 13.773C15.59 12.075 13.42 11 11 11H9V8.161L4.202 12L9 15.839V13Z" fill="#8DB338"/>
</g></symbol><symbol id="checkmark" viewBox="0 0 24 24"><g fill="none">
<g clip-path="url(#clip0_2588_10920)">
<path d="M12 0.75C5.78662 0.75 0.75 5.787 0.75 12C0.75 18.213 5.787 23.25 12 23.25C18.213 23.25 23.25 18.213 23.25 12C23.25 5.787 18.213 0.75 12 0.75ZM9.38437 18.75L9.37687 18.7425L9.3705 18.75L4.125 13.35L6.76087 10.6635L9.37725 13.3575L17.2523 5.25038L19.875 7.94963L9.38437 18.75Z" fill="#8DB338"/>
</g>

</g></symbol><symbol id="clip" viewBox="0 0 24 24"><g fill="none">
<path d="M14.8273 7.75689L9.17131 13.4139C9.0758 13.5061 8.99962 13.6165 8.94721 13.7385C8.8948 13.8605 8.86721 13.9917 8.86606 14.1245C8.86491 14.2573 8.89021 14.3889 8.94049 14.5118C8.99077 14.6347 9.06502 14.7464 9.15892 14.8403C9.25281 14.9342 9.36446 15.0084 9.48736 15.0587C9.61025 15.109 9.74193 15.1343 9.87471 15.1331C10.0075 15.132 10.1387 15.1044 10.2607 15.052C10.3827 14.9996 10.4931 14.9234 10.5853 14.8279L16.2423 9.17189C16.805 8.60923 17.1211 7.8461 17.1211 7.05039C17.1211 6.25467 16.805 5.49154 16.2423 4.92889C15.6797 4.36623 14.9165 4.05013 14.1208 4.05013C13.3251 4.05013 12.562 4.36623 11.9993 4.92889L6.34231 10.5859C5.86839 11.048 5.49094 11.5996 5.23187 12.2088C4.9728 12.8179 4.83726 13.4724 4.83311 14.1344C4.82896 14.7963 4.95629 15.4525 5.20771 16.0648C5.45913 16.6771 5.82963 17.2334 6.29773 17.7015C6.76582 18.1695 7.32219 18.5399 7.93456 18.7913C8.54694 19.0426 9.20312 19.1698 9.86505 19.1656C10.527 19.1614 11.1815 19.0257 11.7906 18.7666C12.3997 18.5074 12.9512 18.1299 13.4133 17.6559L19.0703 11.9999L20.4843 13.4139L14.8273 19.0709C14.1773 19.7209 13.4056 20.2366 12.5562 20.5884C11.7069 20.9402 10.7966 21.1212 9.87731 21.1212C8.95801 21.1212 8.04771 20.9402 7.19839 20.5884C6.34907 20.2366 5.57735 19.7209 4.92731 19.0709C4.27727 18.4208 3.76162 17.6491 3.40982 16.7998C3.05802 15.9505 2.87695 15.0402 2.87695 14.1209C2.87695 13.2016 3.05802 12.2913 3.40982 11.442C3.76162 10.5926 4.27727 9.82093 4.92731 9.17089L10.5853 3.51489C11.5283 2.6041 12.7913 2.10013 14.1023 2.11152C15.4133 2.12291 16.6674 2.64875 17.5944 3.57579C18.5214 4.50284 19.0473 5.7569 19.0587 7.06788C19.0701 8.37887 18.5661 9.64188 17.6553 10.5849L11.9993 16.2439C11.7206 16.5225 11.3898 16.7435 11.0258 16.8942C10.6617 17.045 10.2715 17.1225 9.87746 17.1225C9.48341 17.1224 9.09323 17.0448 8.7292 16.894C8.36517 16.7431 8.03441 16.5221 7.75581 16.2434C7.47721 15.9647 7.25623 15.6339 7.10547 15.2698C6.95472 14.9058 6.87716 14.5156 6.8772 14.1215C6.87725 13.7275 6.95491 13.3373 7.10575 12.9733C7.25658 12.6092 7.47765 12.2785 7.75631 11.9999L13.4133 6.34289L14.8273 7.75689Z" fill="#8DB338"/>
</g></symbol><symbol id="cross" viewBox="0 0 24 24"><g fill="none">
<g clip-path="url(#clip0_2765_13574)">
<path d="M12 0.75C5.78662 0.75 0.75 5.787 0.75 12C0.75 18.213 5.787 23.25 12 23.25C18.213 23.25 23.25 18.213 23.25 12C23.25 5.787 18.213 0.75 12 0.75Z" fill="#BF2020"/>
<path d="M18.2475 7.51055L18.495 7.26306L18.2475 7.01558L16.9844 5.75251L16.7369 5.50503L16.4894 5.75251L12 10.242L7.51055 5.75251L7.26306 5.50503L7.01558 5.75251L5.75251 7.01558L5.50503 7.26306L5.75251 7.51055L10.242 12L5.75251 16.4894L5.50503 16.7369L5.75251 16.9844L7.01558 18.2475L7.26306 18.495L7.51055 18.2475L12 13.758L16.4894 18.2475L16.7369 18.495L16.9844 18.2475L18.2475 16.9844L18.495 16.7369L18.2475 16.4894L13.758 12L18.2475 7.51055Z" fill="white" stroke="white" stroke-width="0.7"/>
</g>

</g></symbol><symbol id="doc" viewBox="0 0 100 90"><g fill="none">
<g opacity="0.7">
<path d="M90 33.333H63.3336V23.3322L43.332 0H6.6666C2.99954 0 0 2.99954 0 6.6666V83.3334C0 87.0005 2.99954 90 6.6666 90H56.667C60.3341 90 63.3336 87.0005 63.3336 83.3334V76.6668H90C95.6662 76.6668 100.001 72.3339 100.001 66.666V43.332C99.999 37.6659 95.6662 33.333 90 33.333ZM43.332 5.00039L58.999 23.334H46.6662C45 23.334 43.3338 21.6678 43.3338 20.0016V5.00039H43.332ZM59.9994 83.3317C59.9994 84.9979 58.6661 86.6641 56.667 86.6641H6.6666C5.00039 86.6641 3.33417 85.3308 3.33417 83.3317V6.6666C3.33417 5.00039 4.66749 3.33417 6.6666 3.33417H39.9996V19.9998C39.9996 23.6669 42.9991 26.6664 46.6662 26.6664H59.9994V33.333H33.333C27.6668 33.333 23.3322 37.6659 23.3322 43.332V66.666C23.3322 72.3322 27.6651 76.6668 33.333 76.6668H59.9994V83.3317ZM96.6649 66.666C96.6649 70.3331 93.6653 73.3326 89.9983 73.3326H33.333C29.6659 73.3326 26.6664 70.3331 26.6664 66.666V43.332C26.6664 39.665 29.6659 36.6654 33.333 36.6654H89.9983C93.6653 36.6654 96.6649 39.665 96.6649 43.332V66.666Z" fill="#020203"/>
<path d="M43.3328 43.373H33.332V66.707H43.3328C46.9999 66.707 49.9994 63.7075 49.9994 60.0404V50.0396C49.9994 46.3726 46.9981 43.373 43.3328 43.373ZM46.6652 60.0404C46.6652 62.0413 45.3319 63.3729 43.3328 63.3729H36.6662V46.7072H43.3328C45.3337 46.7072 46.6652 48.0405 46.6652 50.0396V60.0404Z" fill="#020203"/>
<path d="M63.3311 43.373H59.9986C56.3316 43.373 53.332 46.3726 53.332 50.0396V60.0387C53.332 63.7057 56.3316 66.7053 59.9986 66.7053H63.3311C66.9981 66.7053 69.9977 63.7057 69.9977 60.0387V50.0396C69.9977 46.3726 66.9981 43.373 63.3311 43.373ZM66.6652 60.0387C66.6652 62.0395 65.3319 63.3729 63.3311 63.3729H59.9986C57.9978 63.3729 56.6645 62.0395 56.6645 60.0387V50.0396C56.6645 48.0388 57.9978 46.7055 59.9986 46.7055H63.3311C65.3319 46.7055 66.6652 48.0388 66.6652 50.0396V60.0387Z" fill="#020203"/>
<path d="M89.9977 50.4998V50.0396C89.9977 46.3726 86.9981 43.373 83.3311 43.373H79.9986C76.3316 43.373 73.332 46.3726 73.332 50.0396V60.0387C73.332 63.7057 76.3316 66.7053 79.9986 66.7053H83.3311C86.9981 66.7053 89.9977 63.7057 89.9977 60.0387V59.5786H86.6652V60.0387C86.6652 62.0395 85.3319 63.3729 83.3311 63.3729H79.9986C77.9978 63.3729 76.6645 62.0395 76.6645 60.0387V50.0396C76.6645 48.0388 77.9978 46.7055 79.9986 46.7055H83.3311C85.3319 46.7055 86.6652 48.0388 86.6652 50.0396V50.4998H89.9977Z" fill="#020203"/>
</g>
</g></symbol><symbol id="download" viewBox="0 0 20 20"><g fill="none">
<path d="M2.5 15.8334H17.5V17.5H2.5V15.8334ZM10.8333 10.9767L15.8925 5.91669L17.0708 7.09502L10 14.1667L2.92917 7.09585L4.1075 5.91669L9.16667 10.975V1.66669H10.8333V10.9767Z" fill="#8DB338"/>
</g></symbol><symbol id="edit" viewBox="0 0 20 20"><g fill="none">
<path d="M13.9642 2.5L12.2975 4.16667H4.16667V15.8333H15.8333V7.7025L17.5 6.03583V16.6667C17.5 16.8877 17.4122 17.0996 17.2559 17.2559C17.0996 17.4122 16.8877 17.5 16.6667 17.5H3.33333C3.11232 17.5 2.90036 17.4122 2.74408 17.2559C2.5878 17.0996 2.5 16.8877 2.5 16.6667V3.33333C2.5 3.11232 2.5878 2.90036 2.74408 2.74408C2.90036 2.5878 3.11232 2.5 3.33333 2.5H13.9642V2.5ZM17.0708 1.75L18.25 2.93L10.59 10.59L9.41333 10.5925L9.41167 9.41167L17.0708 1.75V1.75Z" fill="#8DB338"/>
</g></symbol><symbol id="exit" viewBox="0 0 20 20"><g fill="none">
<path d="M3.33398 14.9998H5.00065V16.6665H15.0007V3.33317H5.00065V4.99984H3.33398V2.49984C3.33398 2.27882 3.42178 2.06686 3.57806 1.91058C3.73434 1.7543 3.9463 1.6665 4.16732 1.6665H15.834C16.055 1.6665 16.267 1.7543 16.4232 1.91058C16.5795 2.06686 16.6673 2.27882 16.6673 2.49984V17.4998C16.6673 17.7209 16.5795 17.9328 16.4232 18.0891C16.267 18.2454 16.055 18.3332 15.834 18.3332H4.16732C3.9463 18.3332 3.73434 18.2454 3.57806 18.0891C3.42178 17.9328 3.33398 17.7209 3.33398 17.4998V14.9998ZM5.00065 9.1665H10.834V10.8332H5.00065V13.3332L0.833984 9.99984L5.00065 6.6665V9.1665Z" fill="white"/>
</g></symbol><symbol id="f-dzen" viewBox="0 0 25 25"><g fill="none">
<circle cx="12.5" cy="12.5" r="12.5" fill="#F5F5F6"/>
<path fill-rule="evenodd" clip-rule="evenodd" d="M12.1254 0C12.0624 5.06731 11.7166 7.91542 9.81599 9.81597C7.91541 11.7166 5.06734 12.0625 0 12.1254V12.8746C5.06734 12.9376 7.91541 13.2835 9.81599 15.184C11.7166 17.0846 12.0624 19.9327 12.1254 25H12.8746C12.9376 19.9327 13.2834 17.0846 15.184 15.184C17.0846 13.2835 19.9327 12.9376 25 12.8746V12.1254C19.9327 12.0624 17.0846 11.7166 15.184 9.81597C13.2834 7.91542 12.9376 5.06731 12.8746 0H12.1254Z" fill="#1C1C1C"/>
</g></symbol><symbol id="f-facebook" viewBox="0 0 26 25"><g fill="none">
<rect x="1.4762" y="0.5" width="24" height="24" rx="2.5" stroke="#F5F5F6"/>
<path fill-rule="evenodd" clip-rule="evenodd" d="M17.5652 3.9261C16.1955 4.17216 14.8463 5.08295 14.2347 6.17445C13.7364 7.06363 13.5719 7.98649 13.5719 9.89307V11.6101H11.8195H10.067V13.4661V15.3222H11.8195H13.5719V20.1612V25.0002H15.6878H17.8034L17.8418 20.1943L17.8801 15.3885L19.9611 15.3517L22.0422 15.3149V13.4661V11.6173L19.9611 11.5805L17.8801 11.5438L17.8836 10.0002C17.8888 7.6125 18.146 7.36763 20.6475 7.36763H22.1882V5.57786V3.78809L20.1802 3.80267C19.0758 3.81062 17.8991 3.86617 17.5652 3.9261Z" fill="#F5F5F6"/>
</g></symbol><symbol id="f-instagram" viewBox="0 0 25 25"><g fill="none">
<path fill-rule="evenodd" clip-rule="evenodd" d="M5.24206 0.217458C3.01766 0.783648 1.52734 2.01043 0.565041 4.06727L0.00012207 5.27493V12.3196C0.00012207 20.0154 0.0390334 20.3396 1.16222 22.0058C2.00718 23.2594 3.16363 24.122 4.65274 24.6093C5.73561 24.9636 6.45738 25 12.3993 25C18.0832 25 19.1036 24.9531 20.0977 24.646C22.2068 23.9944 23.9019 22.3065 24.6088 20.1539C24.9632 19.0744 25.0001 18.3533 25.0001 12.5209C25.0001 7.00973 24.9503 5.91961 24.6552 4.96899C24.1937 3.48276 23.2943 2.17225 22.1943 1.38365C20.3882 0.0888419 20.2304 0.0654939 12.9033 0.0105455C8.02956 -0.0258855 5.98057 0.0294656 5.24206 0.217458ZM20.1213 2.82902C21.4138 3.46284 22.0822 4.28928 22.5062 5.77812C22.8852 7.10895 22.8808 17.7647 22.5007 19.2487C22.1281 20.7036 21.0031 21.9309 19.5915 22.4227C18.6757 22.7417 17.811 22.786 12.5001 22.786C6.1102 22.7858 5.42936 22.7079 4.11807 21.8255C3.20274 21.2098 2.59548 20.2636 2.33379 19.045C2.20819 18.4603 2.11706 15.6443 2.11706 12.3462C2.11706 6.00536 2.24649 5.12518 3.36524 3.85291C4.73561 2.29483 5.41907 2.17789 12.9033 2.22096L18.9517 2.25578L20.1213 2.82902ZM18.5485 4.40622C17.5731 4.97643 17.3919 5.80972 18.0592 6.65669C18.8888 7.70956 20.6654 7.12586 20.6654 5.80046C20.6654 4.69545 19.4372 3.88652 18.5485 4.40622ZM10.6856 6.2487C8.79165 6.87527 7.30355 8.17954 6.51484 9.90428C5.87996 11.2925 5.86706 13.7231 6.48722 15.0722C7.1346 16.4806 8.38581 17.7178 9.80577 18.3541C10.9193 18.8528 11.2152 18.8995 12.7931 18.8242C14.2487 18.7546 14.7046 18.6469 15.4923 18.186C17.6318 16.9343 18.6935 15.2429 18.8175 12.8884C18.9122 11.0862 18.5021 9.76057 17.4308 8.40739C15.9562 6.54518 12.8219 5.54202 10.6856 6.2487ZM14.5711 8.92829C18.0076 10.9032 16.8288 16.2801 12.8876 16.6064C11.4497 16.7253 10.2209 16.2576 9.30052 15.2405C7.78097 13.5613 7.82653 11.4036 9.41786 9.68006C10.8223 8.15881 12.7443 7.87864 14.5711 8.92829Z" fill="#F5F5F6"/>
</g></symbol><symbol id="f-ok" viewBox="0 0 25 25"><g fill="none">
<rect width="25" height="25" rx="4" fill="#F5F5F6"/>
<path fill-rule="evenodd" clip-rule="evenodd" d="M12.2952 3.49205C10.3385 3.76415 8.80872 5.27481 8.5072 7.23267C8.44765 7.6193 8.48461 8.48896 8.57617 8.85505C8.73819 9.50294 8.96816 9.99008 9.35375 10.5019C10.6461 12.2177 12.9445 12.7402 14.8541 11.7525C16.0332 11.1426 16.8527 10.0794 17.1397 8.78713C17.2253 8.40176 17.2443 7.61754 17.1782 7.19939C16.8868 5.35749 15.5021 3.90782 13.6809 3.53813C13.376 3.47623 12.5955 3.45029 12.2952 3.49205ZM13.5213 5.81818C14.176 6.03828 14.6835 6.5477 14.8892 7.19118C14.9781 7.46935 15.0098 7.99775 14.9548 8.28577C14.9325 8.40278 14.8452 8.64194 14.7608 8.81729C14.2471 9.88458 12.9546 10.3124 11.8798 9.77079C11.3848 9.52138 11.0071 9.09532 10.8263 8.58261C10.708 8.24675 10.6785 7.68813 10.7619 7.36031C10.981 6.4988 11.6323 5.88891 12.503 5.72992C12.7713 5.68093 13.2316 5.72082 13.5213 5.81818ZM8.39102 12.2559C8.07177 12.3758 7.80307 12.6778 7.69113 13.0424C7.60843 13.3119 7.62111 13.4695 7.74634 13.7278C7.93803 14.1232 8.74924 14.7423 9.53018 15.0891C10.1362 15.3582 11.0713 15.6042 11.7226 15.6658C11.8579 15.6786 11.9685 15.6961 11.9685 15.7047C11.9685 15.7133 11.2246 16.4752 10.3154 17.3979C9.02367 18.7087 8.64005 19.1176 8.56057 19.2685C8.20771 19.9384 8.78522 20.8215 9.57785 20.824C9.98985 20.8253 9.99962 20.8177 11.4557 19.36C12.1714 18.6435 12.7818 18.0555 12.8121 18.0533C12.8423 18.051 12.89 18.0521 12.9179 18.0557C12.9459 18.0593 13.5563 18.6487 14.2743 19.3655C15.647 20.7359 15.6931 20.774 16.0428 20.8253C16.4558 20.8859 16.9683 20.5732 17.1804 20.1311C17.2523 19.981 17.2711 19.8927 17.2708 19.7042C17.2701 19.2804 17.2976 19.3144 15.4385 17.4433C14.5184 16.5173 13.7657 15.7418 13.7657 15.72C13.7657 15.6982 13.8019 15.6803 13.8462 15.6803C13.9714 15.6803 14.7357 15.547 15.0373 15.4726C15.9091 15.2575 16.5975 14.9398 17.2414 14.4553C17.6128 14.1759 17.8712 13.9142 17.9747 13.7125C18.1961 13.281 17.9413 12.6002 17.4603 12.338C17.235 12.2153 16.9385 12.1866 16.6781 12.2624C16.5761 12.2921 16.3178 12.4264 16.1041 12.5609C15.3638 13.0268 14.6791 13.3033 13.9288 13.4392C12.4533 13.7066 10.988 13.4201 9.67958 12.6084C9.47443 12.4811 9.23791 12.3471 9.15399 12.3107C8.97247 12.2318 8.53816 12.2006 8.39102 12.2559Z" fill="#1C1C1C"/>
</g></symbol><symbol id="f-pinterest" viewBox="0 0 25 25"><g fill="none">
<path fill-rule="evenodd" clip-rule="evenodd" d="M11.3301 0.0293377C8.89752 0.264667 6.48629 1.25368 4.59557 2.79169C4.03943 3.2441 3.15889 4.13155 2.71533 4.6868C1.5938 6.09065 0.674748 7.98957 0.293581 9.69035C0.0542147 10.7587 0 11.278 0 12.5035C0 13.7291 0.0542147 14.2484 0.293581 15.3167C0.683066 17.0546 1.6261 18.9807 2.78491 20.4049C3.23737 20.961 4.12491 21.8415 4.68022 22.285C6.08423 23.4064 7.98336 24.3253 9.68432 24.7064C10.7528 24.9458 11.2722 25 12.4978 25C13.7235 25 14.2429 24.9458 15.3113 24.7064C16.5902 24.4199 18.2624 23.7054 19.3612 22.976C21.2671 21.7108 22.7308 20.0463 23.7302 18.0076C24.3424 16.7588 24.6901 15.6404 24.9091 14.2159C25.0303 13.4277 25.0303 11.5793 24.9091 10.7912C24.6901 9.36672 24.3424 8.24829 23.7302 6.99948C23.077 5.66686 22.3488 4.65304 21.2975 3.61255C20.2654 2.591 19.3199 1.9197 18.0025 1.27301C16.7684 0.667221 15.6259 0.309971 14.2593 0.102481C13.6447 0.00918065 11.9705 -0.0326502 11.3301 0.0293377ZM13.6792 3.20829C15.7227 3.40756 17.4382 4.33395 18.5566 5.84221C19.4565 7.05579 19.8203 8.41038 19.6903 10.0645C19.4937 12.5683 18.523 14.5715 16.9716 15.6749C16.0336 16.342 15.1405 16.6319 14.0146 16.6347C12.9969 16.6372 12.3065 16.3753 11.6714 15.7458C11.4725 15.5487 11.3057 15.3936 11.3006 15.401C11.2956 15.4085 11.1324 16.042 10.9381 16.8089C10.4958 18.5539 10.4131 18.8056 10.0274 19.5814C9.56948 20.5023 8.6676 21.8482 8.50843 21.8482C8.39804 21.8482 8.35219 21.6785 8.29548 21.0604C8.19498 19.965 8.18402 19.5641 8.23662 18.9127C8.30585 18.0557 8.30522 18.0589 9.09906 14.695L9.77694 11.8228L9.68642 11.5394C9.36544 10.5344 9.3878 9.46339 9.747 8.63847C10.1058 7.81442 10.9301 7.25453 11.6589 7.33985C12.0486 7.38545 12.4244 7.57831 12.6033 7.82431C12.883 8.20905 12.9102 8.31483 12.9069 9.0054C12.9036 9.70356 12.9433 9.52944 12.249 11.892C11.9271 12.9875 11.9008 13.3846 12.1203 13.8323C12.5098 14.6268 13.3768 14.9737 14.3197 14.7123C15.5854 14.3613 16.58 12.8861 16.9598 10.7966C17.0402 10.3543 17.0641 10.0173 17.0677 9.27449C17.0719 8.41826 17.0609 8.28034 16.9604 7.92906C16.5543 6.51062 15.5267 5.52982 14.0614 5.16215C13.4737 5.01469 12.2541 4.97731 11.6213 5.0874C10.488 5.28456 9.51516 5.79103 8.77691 6.56816C8.05357 7.32958 7.60375 8.23988 7.43416 9.28545C7.24363 10.4598 7.42335 11.3508 8.01448 12.1631C8.15882 12.3614 8.24088 12.5251 8.24088 12.6146C8.24088 12.7738 8.01448 13.699 7.94269 13.8331C7.89166 13.9284 7.6885 13.9996 7.53139 13.9772C7.3547 13.952 6.83394 13.6326 6.55743 13.3799C5.31607 12.2456 4.91754 9.79036 5.65105 7.79637C6.17719 6.36595 7.24803 5.09048 8.61064 4.27103C9.96635 3.4558 11.9507 3.03974 13.6792 3.20829Z" fill="#F5F5F6"/>
</g></symbol><symbol id="f-rutube" viewBox="0 0 25 23"><g fill="none">
<path d="M0 22.4783C0 16.5827 0 10.7262 0 4.81769C0.222969 4.80467 0.432823 4.77864 0.642677 4.77864C5.79721 4.77864 10.9517 4.76563 16.1063 4.79166C16.8408 4.79166 17.5884 4.86975 18.3097 5.03893C20.041 5.45539 21.1165 6.63971 21.2739 8.35761C21.4313 10.0235 21.392 11.7283 21.2346 13.4072C21.0641 15.2162 19.8967 16.2574 18.1261 16.6218C18.0081 16.6478 17.89 16.6868 17.6671 16.7519C19.0836 18.665 20.4607 20.5131 21.9297 22.5043C21.1559 22.5043 17.09 22.5043 17.09 22.5043L13.0503 16.7649H4.44627C4.44627 18.626 4.44627 20.5651 4.44627 22.4653C2.93795 22.4783 1.50832 22.4783 0 22.4783ZM4.45939 12.8736C4.70859 12.8736 4.8791 12.8736 5.0496 12.8736C8.3548 12.8736 11.6469 12.8736 14.9521 12.8736C15.2537 12.8736 15.5685 12.8736 15.8702 12.8606C16.4997 12.8216 16.8932 12.5092 16.9457 11.8585C16.985 11.39 16.985 10.9084 16.985 10.4269C16.9981 9.00833 16.6965 8.69599 15.28 8.69599C11.8698 8.69599 8.45972 8.69599 5.0496 8.69599C4.86598 8.69599 4.66924 8.72202 4.45939 8.73503C4.45939 10.1146 4.45939 11.442 4.45939 12.8736Z" fill="#F5F5F6"/>
<path d="M22.7954 4.93415C21.5494 4.96017 20.5395 3.99711 20.5264 2.74772C20.5133 1.48532 21.4707 0.50924 22.7298 0.496226C23.9627 0.483211 24.9727 1.43326 24.9989 2.63059C25.0382 3.91902 24.0939 4.90812 22.7954 4.93415Z" fill="#F5F5F6"/>
</g></symbol><symbol id="f-telegram" viewBox="0 0 25 21"><g fill="none">
<path fill-rule="evenodd" clip-rule="evenodd" d="M23.3162 0.683992C21.6521 1.26751 1.14286 8.77787 0.840787 8.91439C-0.16299 9.36787 -0.280339 9.96687 0.555286 10.372C0.635963 10.4111 2.02416 10.8343 3.64016 11.3124L6.57839 12.1816L13.2502 8.20335C16.9197 6.01529 19.9959 4.2005 20.0862 4.17053C20.3128 4.09521 20.5078 4.10225 20.5988 4.18903C20.6625 4.24976 20.6651 4.28024 20.6145 4.36949C20.581 4.42855 18.1442 6.53789 15.1995 9.05691C12.2548 11.5759 9.83752 13.6567 9.82779 13.6808C9.81811 13.7049 9.71851 14.9625 9.60644 16.4755L9.40274 19.2265L9.62409 19.198C9.74584 19.1823 9.93864 19.1225 10.0525 19.0649C10.1664 19.0074 10.9331 18.3454 11.7562 17.5939C12.5793 16.8424 13.2813 16.2171 13.3162 16.2043C13.351 16.1916 14.6619 17.0767 16.2291 18.1712C17.7964 19.2656 19.2016 20.2153 19.3516 20.2813C19.7453 20.4548 20.1889 20.472 20.4769 20.3251C20.7342 20.1938 20.9857 19.8678 21.0914 19.5284C21.1323 19.397 22.0284 15.4508 23.0826 10.759C24.8378 2.94733 24.9994 2.19103 25 1.7856C25.0006 1.40253 24.9839 1.31142 24.8762 1.10979C24.8002 0.967643 24.6708 0.822508 24.5442 0.737683C24.2549 0.543704 23.7759 0.522778 23.3162 0.683992Z" fill="#F5F5F6"/>
</g></symbol><symbol id="f-tiktok" viewBox="0 0 23 25"><g fill="none">
<path fill-rule="evenodd" clip-rule="evenodd" d="M12.0762 8.8591C12.0502 18.8385 12.0839 18.0455 11.6498 18.8913C11.2667 19.6379 10.6894 20.192 9.91547 20.5564C9.26505 20.8626 8.91359 20.94 8.1776 20.9391C7.45955 20.9384 7.09792 20.8603 6.49084 20.5754C5.71744 20.2125 5.09691 19.6197 4.72782 18.8913C4.4285 18.3005 4.3482 17.9602 4.34738 17.2783C4.34646 16.5708 4.42671 16.244 4.76145 15.592C4.96305 15.1993 5.07146 15.0595 5.46422 14.6858C5.97106 14.2035 6.43231 13.9361 7.10421 13.7351C7.59689 13.5877 8.40838 13.5525 8.91875 13.6565C9.12959 13.6995 9.33088 13.7346 9.366 13.7346C9.41609 13.7347 9.42989 13.2921 9.42989 11.6848V9.63493L9.1871 9.59588C9.05354 9.57442 8.57629 9.55849 8.12648 9.56049C6.81168 9.56641 5.77678 9.78963 4.63842 10.3129C0.150164 12.376 -1.37155 17.6003 1.36647 21.5459C1.83948 22.2275 2.86058 23.2107 3.55179 23.65C5.68615 25.0068 8.26168 25.358 10.7077 24.6258C12.8996 23.9698 14.8597 22.2537 15.7402 20.2197C15.9686 19.6919 16.1427 19.1125 16.2568 18.5002C16.3408 18.0494 16.3468 17.6308 16.3345 13.1115C16.3271 10.4164 16.3371 8.21147 16.3566 8.21147C16.3762 8.21147 16.476 8.27462 16.5785 8.35179C17.1557 8.78671 18.3169 9.3817 19.2048 9.69745C20.1976 10.0505 21.6108 10.3132 22.5173 10.3132H22.9762L22.9628 8.297L22.9495 6.28079L22.4554 6.24995C20.888 6.1521 19.4644 5.52759 18.2916 4.42344C17.1505 3.3492 16.4802 1.96821 16.3518 0.427681L16.3162 0H14.2077H12.0992L12.0762 8.8591Z" fill="#F5F5F6"/>
</g></symbol><symbol id="f-twitter" viewBox="0 0 26 21"><g fill="none">
<path fill-rule="evenodd" clip-rule="evenodd" d="M17.1721 0.656045C16.688 0.760471 16.3934 0.860783 15.9736 1.06415C14.6058 1.72685 13.626 2.90536 13.2353 4.35797C13.0961 4.87533 13.0482 5.86324 13.1373 6.38006L13.1877 6.67271L12.614 6.63549C10.569 6.50274 8.32404 5.79262 6.41694 4.67512C5.36374 4.05793 4.60031 3.4659 3.56764 2.46529C2.46533 1.39729 2.56176 1.42216 2.27709 2.13221C1.79224 3.34143 1.75328 4.44403 2.15644 5.54507C2.47019 6.40201 3.13528 7.33952 3.80511 7.86899L4.15425 8.14499H3.96171C3.60414 8.14499 2.82461 7.95928 2.34536 7.75991L1.86907 7.56173V7.85587C1.86907 8.90628 2.44056 10.1804 3.30435 11.0559C3.94413 11.7043 4.5761 12.092 5.46435 12.3811L5.95601 12.5411L5.4268 12.6177C5.12123 12.6619 4.63368 12.6819 4.27323 12.6651C3.54035 12.6308 3.56014 12.5777 4.00092 13.397C4.48133 14.2901 5.27033 15.0561 6.17111 15.504C6.82834 15.8308 7.17275 15.9392 7.85807 16.0353L8.40301 16.1116L8.16284 16.2953C8.03076 16.3963 7.73607 16.5894 7.508 16.7244C5.72929 17.7776 3.74052 18.2833 1.66226 18.2108C0.748999 18.1789 0.748998 18.1803 1.65335 18.6516C4.74615 20.2634 8.0854 20.7808 11.5487 20.1848C16.7909 19.2826 20.9608 15.6605 22.6725 10.5225C23.1332 9.1397 23.3793 7.67892 23.3793 6.3277V5.53523L23.7327 5.27795C24.3961 4.79488 25.4189 3.73147 25.8662 3.0597L25.9762 2.89457L25.6884 3.01426C25.0647 3.27368 23.2442 3.73982 23.1628 3.66086C23.1495 3.64792 23.3357 3.49142 23.5766 3.31317C24.258 2.80892 24.9115 1.93964 25.1945 1.16118L25.275 0.940042L24.5268 1.28773C23.825 1.61395 22.9885 1.90922 22.3206 2.06655L22.03 2.13501L21.706 1.85078C21.0604 1.28457 20.2831 0.888037 19.4292 0.689383C18.8449 0.553467 17.7244 0.536947 17.1721 0.656045Z" fill="#F5F5F6"/>
</g></symbol><symbol id="f-vk" viewBox="0 0 26 15"><g fill="none">
<path fill-rule="evenodd" clip-rule="evenodd" d="M10.1233 0.495628C9.78875 0.626579 9.30657 1.05808 9.30657 1.22654C9.30657 1.30237 9.41274 1.36434 9.54243 1.36434C9.67229 1.36434 9.97006 1.52953 10.2041 1.73126C10.7709 2.21967 11.0205 3.88941 10.7962 5.69288C10.6105 7.18584 10.3836 7.50955 9.73125 7.21291C9.15564 6.95101 7.71808 4.79237 6.76907 2.76468C6.21682 1.58482 5.92803 1.15087 5.61703 1.03264C5.07654 0.827491 1.93664 0.828632 1.39517 1.03411C1.15293 1.12608 0.976196 1.32096 0.976196 1.4961C0.976196 1.6626 1.58268 3.00701 2.32376 4.48334C5.41138 10.6341 8.10128 13.5356 11.4452 14.3224C12.8249 14.6471 15.0772 14.6572 15.341 14.34C15.4479 14.2115 15.5991 13.6554 15.677 13.1045C15.7551 12.5535 15.9356 11.9247 16.0783 11.7073C16.5241 11.0279 16.9596 11.2044 18.3331 12.6207C20.2391 14.5858 20.2058 14.5722 23.117 14.5729C25.7597 14.5735 25.9673 14.5135 25.9673 13.7484C25.9673 13.1256 25.3396 12.2732 23.5002 10.398C22.6112 9.49158 21.8838 8.66234 21.8838 8.55519C21.8838 8.21061 22.3209 7.52047 23.7529 5.60433C25.9498 2.66455 26.455 1.37836 25.5483 1.03411C25.0137 0.831241 20.975 0.825532 20.5977 1.0271C20.4412 1.11075 19.8242 2.15656 19.2266 3.35094C18.0244 5.75387 16.8496 7.28613 16.2732 7.20296C15.6492 7.11311 15.5184 6.51185 15.516 3.71933C15.514 1.72001 15.4588 1.02563 15.2821 0.783949C15.0736 0.499054 14.816 0.463992 12.7094 0.433497C11.4218 0.414906 10.258 0.442792 10.1233 0.495628Z" fill="#F5F5F6"/>
</g></symbol><symbol id="f-youtube" viewBox="0 0 25 19"><g fill="none">
<path fill-rule="evenodd" clip-rule="evenodd" d="M7.74019 0.913502C5.9176 0.980991 4.04402 1.09437 3.57669 1.16574C1.90533 1.42068 0.837947 2.28487 0.451845 3.69638C0.0725407 5.08209 -0.118471 9.38852 0.0791682 12.0923C0.288533 14.9558 0.428223 15.6226 0.993441 16.4557C1.97722 17.9057 3.66216 18.1525 12.5835 18.1534C18.7618 18.1539 21.8592 17.9567 22.7618 17.505C24.3042 16.7333 24.6454 15.8706 24.9195 12.0499C25.1166 9.30382 24.9348 5.07703 24.5632 3.76185C24.0559 1.96666 23.0349 1.32771 20.3062 1.09808C17.4728 0.859512 11.5497 0.77262 7.74019 0.913502ZM13.9829 8.05259C15.3134 8.81234 16.4027 9.47186 16.4037 9.51826C16.4054 9.59132 13.2112 11.4547 10.7566 12.8124L9.9494 13.259V9.51826V5.77755L10.7566 6.22433C11.2005 6.47015 12.6525 7.29284 13.9829 8.05259Z" fill="#F5F5F6"/>
</g></symbol><symbol id="google" viewBox="0 0 36 36"><g fill="none">
<path fill-rule="evenodd" clip-rule="evenodd" d="M3.375 18C3.375 9.9233 9.9233 3.375 18 3.375C21.8549 3.375 25.3505 4.87869 27.9592 7.30985C28.1825 7.51796 28.3116 7.80786 28.317 8.11305C28.3223 8.41824 28.2035 8.71251 27.9876 8.92834L24.1692 12.7468C23.7479 13.1681 23.0711 13.1879 22.6259 12.7919C21.3912 11.6935 19.7755 11.025 18 11.025C14.1481 11.025 11.025 14.1481 11.025 18C11.025 21.8519 14.1481 24.975 18 24.975C20.4358 24.975 22.5782 23.7229 23.8242 21.825H18C17.3787 21.825 16.875 21.3213 16.875 20.7V15.3C16.875 14.6787 17.3787 14.175 18 14.175H31.2374C31.7745 14.175 32.2366 14.5546 32.341 15.0814C32.5248 16.0091 32.625 17.022 32.625 18C32.625 26.0767 26.0767 32.625 18 32.625C9.9233 32.625 3.375 26.0767 3.375 18ZM18 5.625C11.1659 5.625 5.625 11.1659 5.625 18C5.625 24.8341 11.1659 30.375 18 30.375C24.8341 30.375 30.375 24.8341 30.375 18C30.375 17.4787 30.3412 16.9441 30.2779 16.425H19.125V19.575H25.6295C25.9948 19.575 26.3374 19.7524 26.5482 20.0507C26.7591 20.349 26.8119 20.7311 26.69 21.0755C25.4237 24.6518 22.0192 27.225 18 27.225C12.9055 27.225 8.775 23.0945 8.775 18C8.775 12.9055 12.9055 8.775 18 8.775C19.9699 8.775 21.7909 9.39779 23.2855 10.4486L25.5343 8.19966C23.4458 6.58744 20.8376 5.625 18 5.625Z" fill="#8DB338"/>
</g></symbol><symbol id="heart" viewBox="0 0 24 24">
<path d="M16.5 3C19.538 3 22 5.5 22 9C22 16 14.5 20 12 21.5C9.5 20 2 16 2 9C2 5.5 4.5 3 7.5 3C9.36 3 11 4 12 5C13 4 14.64 3 16.5 3ZM12.934 18.604C13.815 18.048 14.61 17.495 15.354 16.903C18.335 14.533 20 11.943 20 9C20 6.64 18.463 5 16.5 5C15.424 5 14.26 5.57 13.414 6.414L12 7.828L10.586 6.414C9.74 5.57 8.576 5 7.5 5C5.56 5 4 6.656 4 9C4 11.944 5.666 14.533 8.645 16.903C9.39 17.495 10.185 18.048 11.066 18.603C11.365 18.792 11.661 18.973 12 19.175C12.339 18.973 12.635 18.792 12.934 18.604Z"/>
</symbol><symbol id="live-streaming" viewBox="0 0 40 42"><g fill="none">
<g clip-path="url(#clip0_4240_16562)">
<path d="M34.7221 25.2484C34.6067 25.3786 34.4665 25.4849 34.3097 25.5611C34.1529 25.6373 33.9825 25.6819 33.8083 25.6924C33.6342 25.7029 33.4596 25.679 33.2947 25.6222C33.1298 25.5653 32.9778 25.4766 32.8475 25.3612C32.5882 25.1275 32.4323 24.8012 32.4137 24.4536C32.395 24.1059 32.5151 23.765 32.7479 23.5052C34.1933 21.9258 35.3746 20.1255 36.2466 18.1732C36.9949 16.4806 37.374 14.6493 37.359 12.8001C37.3084 10.9483 36.8625 9.12834 36.0509 7.46126C35.11 5.53501 33.8676 3.76983 32.3702 2.23176C32.1287 1.97554 31.9992 1.6344 32.0102 1.28322C32.0211 0.932044 32.1716 0.599542 32.4286 0.358716C32.5555 0.239366 32.7049 0.146161 32.8681 0.084459C33.0314 0.0227566 33.2052 -0.00622755 33.3798 -0.000828109C33.5543 0.00457133 33.726 0.0442479 33.8851 0.115922C34.0442 0.187596 34.1874 0.289854 34.3067 0.416822C36.0264 2.18339 37.4448 4.21764 38.5058 6.43928C39.4426 8.41496 39.9515 10.5647 39.9994 12.7489C40.0229 14.9326 39.5866 17.0971 38.7187 19.1029C37.7322 21.3567 36.3822 23.4349 34.7221 25.2552V25.2484ZM13.0191 18.6722C13.1292 18.807 13.2114 18.9622 13.2609 19.1288C13.3104 19.2954 13.3262 19.4702 13.3075 19.6429C13.2908 19.8159 13.2398 19.9839 13.1573 20.1371C13.0749 20.2903 12.9627 20.4257 12.8273 20.5354C12.6918 20.6451 12.5359 20.727 12.3684 20.7762C12.2009 20.8254 12.0253 20.841 11.8518 20.8221C11.6777 20.8049 11.5089 20.7535 11.355 20.6708C11.2012 20.588 11.0654 20.4756 10.9556 20.3402C10.0415 19.2394 9.30585 18.0031 8.77536 16.6761C8.28719 15.4485 8.03335 14.1409 8.02686 12.8206C8.02388 11.5083 8.26967 10.2072 8.75132 8.98567C9.27696 7.66863 10.0081 6.44244 10.9178 5.35237C11.0277 5.21745 11.1632 5.10543 11.3166 5.02276C11.47 4.94008 11.6383 4.88837 11.8118 4.87059C11.9854 4.85281 12.1607 4.8693 12.3278 4.91913C12.4949 4.96896 12.6505 5.05114 12.7857 5.16096C12.9201 5.27044 13.0315 5.40522 13.1136 5.55759C13.1957 5.70996 13.2468 5.87694 13.264 6.04899C13.2812 6.22103 13.2642 6.39476 13.2139 6.56026C13.1637 6.72576 13.0811 6.87977 12.9711 7.0135C12.255 7.87268 11.676 8.83643 11.2543 9.87092C10.4871 11.7611 10.4945 13.8753 11.2749 15.7601C11.7054 16.8094 12.2948 17.7869 13.0226 18.6585L13.0191 18.6722ZM29.0432 20.3402C28.8213 20.6124 28.5 20.7858 28.1498 20.8223C27.7995 20.8589 27.4491 20.7555 27.1754 20.535C26.9017 20.3132 26.7275 19.9924 26.6912 19.6429C26.6728 19.4699 26.6892 19.295 26.7393 19.1284C26.7894 18.9617 26.8722 18.8067 26.9831 18.6722C27.7098 17.8004 28.298 16.8229 28.7273 15.7738C29.5123 13.8911 29.5197 11.7761 28.7479 9.88801C28.3274 8.85399 27.7483 7.89119 27.0311 7.03401L27.0105 7.01008C26.7965 6.7396 26.6965 6.39685 26.7318 6.05431C26.767 5.71177 26.9347 5.39631 27.1994 5.17463L27.2269 5.15071C27.5015 4.93587 27.8497 4.83666 28.1969 4.87436C28.5441 4.91206 28.8627 5.08365 29.0844 5.35237C29.9931 6.44191 30.7221 7.66831 31.244 8.98567C31.7255 10.2086 31.9724 11.5106 31.9719 12.824C31.9697 14.1428 31.7229 15.4499 31.244 16.6795C30.7126 18.0058 29.9758 19.2409 29.0603 20.3402H29.0432ZM7.26806 23.4949C7.50496 23.7563 7.62839 24.1003 7.61141 24.452C7.60055 24.6275 7.55473 24.7991 7.47662 24.9568C7.39851 25.1146 7.28967 25.2552 7.15643 25.3707C7.02319 25.4862 6.86822 25.5741 6.70053 25.6294C6.53284 25.6846 6.35578 25.7062 6.17965 25.6927C5.82755 25.6693 5.49858 25.5098 5.26291 25.2484C3.60285 23.4281 2.25286 21.3499 1.26634 19.096C0.402309 17.0919 -0.0293235 14.9295 -0.000608954 12.7489C0.0472252 10.5647 0.556098 8.41492 1.49295 6.43928C2.5553 4.21838 3.97354 2.18432 5.69209 0.416822C5.93763 0.177022 6.26681 0.0410554 6.61076 0.0373803C6.95471 0.0337053 7.28675 0.162606 7.5374 0.397105C7.78804 0.631603 7.93786 0.953523 7.9555 1.29549C7.97313 1.63745 7.85721 1.97295 7.63201 2.23176C6.13228 3.76869 4.8886 5.53406 3.94789 7.46126C3.14366 9.12652 2.70363 10.9427 2.6569 12.7899C2.64398 14.6395 3.02549 16.4709 3.77621 18.1629C4.65078 20.1146 5.83307 21.9147 7.27836 23.4949H7.26806Z" fill="white"/>
<path fill-rule="evenodd" clip-rule="evenodd" d="M8.85479 28.1196H31.1449C31.5629 28.1205 31.9636 28.286 32.2595 28.5799C32.5554 28.8738 32.7225 29.2724 32.7243 29.6885V40.4277C32.7234 40.8444 32.5567 41.2438 32.2607 41.5385C31.9647 41.8332 31.5635 41.9991 31.1449 42H8.85479C8.43646 41.9982 8.03579 41.832 7.73998 41.5375C7.44418 41.243 7.2772 40.8442 7.27539 40.4277V29.6885C7.2772 29.2724 7.44429 28.8738 7.74019 28.5799C8.0361 28.286 8.43678 28.1205 8.85479 28.1196ZM13.49 31.124V37.4233H14.7981V38.9956H11.3063V31.1343L13.49 31.124ZM17.9535 31.124V38.9854H15.7938V31.124H17.9535ZM24.4359 31.124L23.3338 38.9854H20.0376L18.7775 31.124H21.0814C21.3423 33.2944 21.5278 35.1333 21.6479 36.6338C21.7647 35.1162 21.8791 33.7695 21.9913 32.5938L22.1355 31.124H24.4359ZM25.2634 31.124H28.8994V32.6963H27.4677V34.2002H28.8067V35.6938H27.4677V37.4268H29.0642V38.999H25.2874V31.1377L25.2634 31.124Z" fill="#BF2020"/>
<path fill-rule="evenodd" clip-rule="evenodd" d="M23.5923 13.5418C24.2069 13.1658 24.2034 12.742 23.5923 12.407L18.5725 8.93096C18.0712 8.63018 17.5425 8.80792 17.5631 9.42999L17.5803 16.4607C17.6249 17.1443 18.03 17.3221 18.6103 17.0076L23.5923 13.5418Z" fill="#BF2020"/>
</g>

</g></symbol><symbol id="login" viewBox="0 0 24 24">
<path d="M4 15H6V20H18V4H6V9H4V3C4 2.73478 4.10536 2.48043 4.29289 2.29289C4.48043 2.10536 4.73478 2 5 2H19C19.2652 2 19.5196 2.10536 19.7071 2.29289C19.8946 2.48043 20 2.73478 20 3V21C20 21.2652 19.8946 21.5196 19.7071 21.7071C19.5196 21.8946 19.2652 22 19 22H5C4.73478 22 4.48043 21.8946 4.29289 21.7071C4.10536 21.5196 4 21.2652 4 21V15ZM10 11V8L15 12L10 16V13H2V11H10Z"/>
</symbol><symbol id="magnifier" viewBox="0 0 24 24">
<path d="M18.031 16.617L22.314 20.899L20.899 22.314L16.617 18.031C15.0237 19.3082 13.042 20.0029 11 20C6.032 20 2 15.968 2 11C2 6.032 6.032 2 11 2C15.968 2 20 6.032 20 11C20.0029 13.042 19.3082 15.0237 18.031 16.617ZM16.025 15.875C17.2941 14.5699 18.0029 12.8204 18 11C18 7.132 14.867 4 11 4C7.132 4 4 7.132 4 11C4 14.867 7.132 18 11 18C12.8204 18.0029 14.5699 17.2941 15.875 16.025L16.025 15.875Z"/>
</symbol><symbol id="mail" viewBox="0 0 24 24"><g fill="none">
<path d="M3 3H21C21.2652 3 21.5196 3.10536 21.7071 3.29289C21.8946 3.48043 22 3.73478 22 4V20C22 20.2652 21.8946 20.5196 21.7071 20.7071C21.5196 20.8946 21.2652 21 21 21H3C2.73478 21 2.48043 20.8946 2.29289 20.7071C2.10536 20.5196 2 20.2652 2 20V4C2 3.73478 2.10536 3.48043 2.29289 3.29289C2.48043 3.10536 2.73478 3 3 3V3ZM20 7.238L12.072 14.338L4 7.216V19H20V7.238ZM4.511 5L12.061 11.662L19.502 5H4.511Z" fill="#8DB338"/>
</g></symbol><symbol id="map-pin" viewBox="0 0 24 24"><g fill="none">
<path d="M12 23.728L5.636 17.364C4.37734 16.1054 3.52019 14.5017 3.17293 12.7559C2.82567 11.0101 3.00391 9.20047 3.6851 7.55595C4.36629 5.91142 5.51984 4.50582 6.99988 3.51689C8.47992 2.52796 10.22 2.00012 12 2.00012C13.78 2.00012 15.5201 2.52796 17.0001 3.51689C18.4802 4.50582 19.6337 5.91142 20.3149 7.55595C20.9961 9.20047 21.1743 11.0101 20.8271 12.7559C20.4798 14.5017 19.6227 16.1054 18.364 17.364L12 23.728ZM16.95 15.95C17.9289 14.971 18.5955 13.7238 18.8656 12.3659C19.1356 11.0081 18.9969 9.60064 18.4671 8.3216C17.9373 7.04256 17.04 5.94935 15.8889 5.18021C14.7378 4.41107 13.3844 4.00055 12 4.00055C10.6156 4.00055 9.26222 4.41107 8.11109 5.18021C6.95996 5.94935 6.06275 7.04256 5.53292 8.3216C5.00308 9.60064 4.86442 11.0081 5.13445 12.3659C5.40449 13.7238 6.07111 14.971 7.05 15.95L12 20.9L16.95 15.95ZM12 13C11.4696 13 10.9609 12.7893 10.5858 12.4143C10.2107 12.0392 10 11.5305 10 11C10 10.4696 10.2107 9.9609 10.5858 9.58583C10.9609 9.21076 11.4696 9.00004 12 9.00004C12.5304 9.00004 13.0391 9.21076 13.4142 9.58583C13.7893 9.9609 14 10.4696 14 11C14 11.5305 13.7893 12.0392 13.4142 12.4143C13.0391 12.7893 12.5304 13 12 13Z" fill="#8DB338"/>
</g></symbol><symbol id="medal" viewBox="0 0 40 40"><g fill="none">
<path d="M19.9993 11.667C23.5356 11.667 26.927 13.0718 29.4274 15.5723C31.9279 18.0728 33.3327 21.4641 33.3327 25.0004C33.3327 28.5366 31.9279 31.928 29.4274 34.4285C26.927 36.9289 23.5356 38.3337 19.9993 38.3337C16.4631 38.3337 13.0717 36.9289 10.5713 34.4285C8.07077 31.928 6.66602 28.5366 6.66602 25.0004C6.66602 21.4641 8.07077 18.0728 10.5713 15.5723C13.0717 13.0718 16.4631 11.667 19.9993 11.667V11.667ZM19.9993 15.0004C17.3472 15.0004 14.8036 16.0539 12.9283 17.9293C11.0529 19.8047 9.99935 22.3482 9.99935 25.0004C9.99935 27.6525 11.0529 30.1961 12.9283 32.0714C14.8036 33.9468 17.3472 35.0004 19.9993 35.0004C22.6515 35.0004 25.1951 33.9468 27.0704 32.0714C28.9458 30.1961 29.9993 27.6525 29.9993 25.0004C29.9993 22.3482 28.9458 19.8047 27.0704 17.9293C25.1951 16.0539 22.6515 15.0004 19.9993 15.0004ZM19.9993 17.5004L22.2043 21.967L27.1327 22.6837L23.566 26.1587L24.4077 31.0687L19.9993 28.7504L15.591 31.067L16.4327 26.1587L12.866 22.682L17.7943 21.9654L19.9993 17.5004ZM29.9993 3.3337V8.3337L27.7277 10.2304C25.8426 9.24134 23.7845 8.62509 21.666 8.41536V3.3337H29.9993ZM18.3327 3.33203V8.41536C16.2149 8.62478 14.1574 9.24045 12.2727 10.2287L9.99935 8.3337V3.3337L18.3327 3.33203Z" fill="#8DB338"/>
</g></symbol><symbol id="phone" viewBox="0 0 24 24">
<path d="M9.366 10.682C10.3043 12.3305 11.6695 13.6957 13.318 14.634L14.202 13.396C14.3442 13.1969 14.5543 13.0569 14.7928 13.0023C15.0313 12.9478 15.2814 12.9825 15.496 13.1C16.9103 13.8729 18.4722 14.3378 20.079 14.464C20.3298 14.4839 20.5638 14.5975 20.7345 14.7823C20.9052 14.9671 21 15.2094 21 15.461V19.923C21.0001 20.1706 20.9083 20.4094 20.7424 20.5932C20.5765 20.777 20.3483 20.8927 20.102 20.918C19.572 20.973 19.038 21 18.5 21C9.94 21 3 14.06 3 5.5C3 4.962 3.027 4.428 3.082 3.898C3.10725 3.6517 3.22298 3.42352 3.40679 3.25763C3.5906 3.09175 3.82941 2.99995 4.077 3H8.539C8.79056 2.99997 9.0329 3.09475 9.21768 3.26545C9.40247 3.43615 9.51613 3.67022 9.536 3.921C9.66222 5.52779 10.1271 7.08968 10.9 8.504C11.0175 8.71856 11.0522 8.96874 10.9977 9.2072C10.9431 9.44565 10.8031 9.65584 10.604 9.798L9.366 10.682ZM6.844 10.025L8.744 8.668C8.20478 7.50409 7.83535 6.26884 7.647 5H5.01C5.004 5.166 5.001 5.333 5.001 5.5C5 12.956 11.044 19 18.5 19C18.667 19 18.834 18.997 19 18.99V16.353C17.7312 16.1646 16.4959 15.7952 15.332 15.256L13.975 17.156C13.4287 16.9437 12.898 16.6931 12.387 16.406L12.329 16.373C10.3676 15.2567 8.74328 13.6324 7.627 11.671L7.594 11.613C7.30691 11.102 7.05628 10.5713 6.844 10.025Z"/>
</symbol><symbol id="play" viewBox="0 0 29 38"><g fill="none">
<path d="M20.985 19L5 8.34255V29.6575L20.985 19ZM28.44 20.04L1.9425 37.705C1.75426 37.8303 1.53558 37.9022 1.30973 37.913C1.08388 37.9238 0.859332 37.8731 0.659997 37.7664C0.460663 37.6597 0.294009 37.5009 0.177784 37.3069C0.0615589 37.113 0.000116801 36.8912 0 36.665V1.33505C0.000116801 1.10894 0.0615589 0.887103 0.177784 0.693156C0.294009 0.49921 0.460663 0.340418 0.659997 0.233696C0.859332 0.126974 1.08388 0.0763174 1.30973 0.0871214C1.53558 0.0979254 1.75426 0.169786 1.9425 0.295049L28.44 17.96C28.6112 18.0742 28.7516 18.2289 28.8486 18.4103C28.9457 18.5917 28.9965 18.7943 28.9965 19C28.9965 19.2058 28.9457 19.4084 28.8486 19.5898C28.7516 19.7712 28.6112 19.9259 28.44 20.04Z" fill="white"/>
</g></symbol><symbol id="print" viewBox="0 0 24 24"><g fill="none">
<path d="M6 19H3C2.73478 19 2.48043 18.8946 2.29289 18.7071C2.10536 18.5196 2 18.2652 2 18V8C2 7.73478 2.10536 7.48043 2.29289 7.29289C2.48043 7.10536 2.73478 7 3 7H6V3C6 2.73478 6.10536 2.48043 6.29289 2.29289C6.48043 2.10536 6.73478 2 7 2H17C17.2652 2 17.5196 2.10536 17.7071 2.29289C17.8946 2.48043 18 2.73478 18 3V7H21C21.2652 7 21.5196 7.10536 21.7071 7.29289C21.8946 7.48043 22 7.73478 22 8V18C22 18.2652 21.8946 18.5196 21.7071 18.7071C21.5196 18.8946 21.2652 19 21 19H18V21C18 21.2652 17.8946 21.5196 17.7071 21.7071C17.5196 21.8946 17.2652 22 17 22H7C6.73478 22 6.48043 21.8946 6.29289 21.7071C6.10536 21.5196 6 21.2652 6 21V19ZM6 17V16C6 15.7348 6.10536 15.4804 6.29289 15.2929C6.48043 15.1054 6.73478 15 7 15H17C17.2652 15 17.5196 15.1054 17.7071 15.2929C17.8946 15.4804 18 15.7348 18 16V17H20V9H4V17H6ZM8 4V7H16V4H8ZM8 17V20H16V17H8ZM5 10H8V12H5V10Z" fill="#8DB338"/>
</g></symbol><symbol id="send" viewBox="0 0 24 24"><g fill="none">
<path d="M3.741 1.40811L22.203 11.5621C22.2814 11.6053 22.3468 11.6687 22.3923 11.7457C22.4378 11.8228 22.4618 11.9106 22.4618 12.0001C22.4618 12.0896 22.4378 12.1774 22.3923 12.2545C22.3468 12.3315 22.2814 12.3949 22.203 12.4381L3.741 22.5921C3.66487 22.634 3.57915 22.6553 3.49227 22.654C3.4054 22.6526 3.32037 22.6287 3.24558 22.5844C3.17078 22.5402 3.1088 22.4773 3.06573 22.4018C3.02267 22.3264 3.00001 22.241 3 22.1541V1.84611C3.00001 1.75922 3.02267 1.67384 3.06573 1.59838C3.1088 1.52291 3.17078 1.45997 3.24558 1.41576C3.32037 1.37155 3.4054 1.34759 3.49227 1.34625C3.57915 1.34491 3.66487 1.36623 3.741 1.40811ZM5 13.0001V19.6171L18.85 12.0001L5 4.38311V11.0001H10V13.0001H5Z" fill="#8DB338"/>
</g></symbol><symbol id="telegram" viewBox="0 0 36 36"><g fill="none">
<path fill-rule="evenodd" clip-rule="evenodd" d="M8.6814 21.0294C8.74706 21.0515 8.81333 21.0672 8.87954 21.0769C8.95174 21.2465 9.04504 21.466 9.15387 21.7227C9.41948 22.3492 9.77737 23.1964 10.1468 24.0803C10.9001 25.8828 11.6601 27.7409 11.8279 28.2728C12.0357 28.9302 12.2553 29.3773 12.495 29.6824C12.619 29.8402 12.7624 29.978 12.9301 30.0823C13.0146 30.1349 13.1038 30.178 13.1969 30.21C13.201 30.2115 13.2051 30.2128 13.2092 30.2142C13.6892 30.3954 14.1269 30.3199 14.4009 30.2276C14.5475 30.1783 14.6661 30.1186 14.7502 30.0703C14.7931 30.0456 14.8293 30.0226 14.8582 30.0032L14.865 29.9986L19.1043 27.3549L24.0011 31.1091C24.0734 31.1645 24.1521 31.211 24.2356 31.2474C24.8239 31.5041 25.3936 31.5936 25.9295 31.5204C26.4644 31.4474 26.8892 31.2226 27.2053 30.9697C27.5149 30.7219 27.7248 30.4445 27.8555 30.2383C27.9223 30.1331 27.9724 30.04 28.0078 29.9686C28.0255 29.9328 28.0398 29.9019 28.0508 29.8771L28.065 29.8444L28.0703 29.8316L28.0725 29.8261L28.0736 29.8236L28.0745 29.8212C28.1002 29.7569 28.12 29.6903 28.1334 29.6224L32.6038 7.08411C32.6181 7.01203 32.6253 6.93872 32.6253 6.86524C32.6253 6.20522 32.3766 5.57761 31.7918 5.19677C31.2921 4.87128 30.7353 4.85727 30.3834 4.88397C30.0039 4.91278 29.6533 5.00648 29.4181 5.08136C29.2956 5.12032 29.193 5.15792 29.119 5.1866C29.0818 5.20102 29.0513 5.21338 29.0286 5.22282L29.0116 5.23L3.94097 15.0648L3.93772 15.066C3.92175 15.0718 3.90123 15.0794 3.87686 15.0889C3.82831 15.1078 3.76327 15.1345 3.68729 15.1689C3.53911 15.2361 3.33124 15.341 3.11793 15.4871C2.77715 15.7205 1.99341 16.3596 2.12538 17.4146C2.23067 18.2562 2.80724 18.7731 3.15852 19.0216C3.35141 19.1581 3.53466 19.2557 3.66811 19.3192C3.73003 19.3487 3.85857 19.4009 3.91435 19.4236L3.92842 19.4293L8.6814 21.0294ZM29.8889 7.3018L29.8854 7.30332C29.873 7.30874 29.8604 7.31394 29.8477 7.31891L4.74669 17.1657C4.73359 17.1708 4.72038 17.1757 4.70709 17.1804L4.69312 17.1857C4.67706 17.1919 4.65003 17.2029 4.61609 17.2183C4.59685 17.227 4.57678 17.2365 4.5563 17.2467C4.58443 17.2625 4.61135 17.2763 4.63527 17.2877C4.65823 17.2986 4.67575 17.3061 4.68534 17.31L9.39928 18.897C9.48556 18.9261 9.566 18.9646 9.63983 19.011L25.205 9.89922L25.2195 9.8906C25.2309 9.88391 25.2458 9.8753 25.2636 9.86521C25.2991 9.84518 25.3477 9.81851 25.4056 9.78905C25.5136 9.73407 25.6865 9.65245 25.8812 9.59228C26.0168 9.55038 26.4165 9.43235 26.8486 9.57095C27.1153 9.6565 27.3915 9.84041 27.5711 10.152C27.6603 10.3068 27.7079 10.4622 27.7309 10.6046C27.792 10.8288 27.7824 11.0502 27.7345 11.2414C27.6313 11.6531 27.3421 11.9743 27.0788 12.22C26.8533 12.4306 23.9352 15.2444 21.0565 18.022C19.6209 19.4072 18.2 20.7787 17.1379 21.8039L16.4403 22.4773L25.2482 29.2301C25.4502 29.3024 25.5697 29.2987 25.6249 29.2911C25.6907 29.2822 25.7446 29.2568 25.7996 29.2128C25.8612 29.1635 25.915 29.0971 25.9552 29.0336L25.9569 29.031L30.2926 7.17153C30.2282 7.18699 30.1632 7.20541 30.1005 7.22537C30.0295 7.24798 29.9709 7.26951 29.9321 7.28456C29.9128 7.29201 29.899 7.29766 29.8915 7.30078L29.8889 7.3018ZM17.197 25.8926L15.4398 24.5454L15.014 27.254L17.197 25.8926ZM13.8278 21.8721L15.5752 20.1851C16.6374 19.1598 18.0584 17.7882 19.4942 16.4029L20.9529 14.9955L11.1729 20.7207L11.2254 20.8444C11.4919 21.4731 11.8514 22.3241 12.2228 23.2126C12.5005 23.8771 12.7908 24.5767 13.0553 25.2244L13.4799 22.5238C13.5208 22.2634 13.648 22.038 13.8278 21.8721Z" fill="#8DB338"/>
</g></symbol><symbol id="upload" viewBox="0 0 21 20"><g fill="none">
<path d="M4.04753 15.8333H17.3809V10H19.0475V16.6667C19.0475 16.8877 18.9597 17.0996 18.8034 17.2559C18.6472 17.4122 18.4352 17.5 18.2142 17.5H3.21419C2.99318 17.5 2.78122 17.4122 2.62494 17.2559C2.46866 17.0996 2.38086 16.8877 2.38086 16.6667V10H4.04753V15.8333ZM11.5475 7.5V13.3333H9.88086V7.5H5.71419L10.7142 2.5L15.7142 7.5H11.5475Z" fill="#8DB338"/>
</g></symbol><symbol id="viber" viewBox="0 0 36 36"><g fill="none">
<path d="M11.9471 9.30261C11.6685 9.2619 11.3843 9.31783 11.1419 9.46109H11.1212C10.5584 9.791 10.0514 10.208 9.61904 10.6965C9.25974 11.1119 9.06483 11.5322 9.01364 11.9368C8.98313 12.178 9.0038 12.4191 9.07566 12.6495L9.10125 12.6652C9.50583 13.8544 10.0344 14.9982 10.6802 16.0751C11.512 17.588 12.5357 18.9873 13.7258 20.238L13.7613 20.2892L13.8174 20.3306L13.8528 20.3719L13.8942 20.4073C15.1495 21.601 16.5521 22.6294 18.0679 23.4678C19.8004 24.4108 20.8517 24.8567 21.4827 25.0418V25.0516C21.6678 25.1077 21.8361 25.1333 22.0054 25.1333C22.5432 25.0939 23.0523 24.8756 23.4515 24.5132C23.9378 24.0807 24.3501 23.5716 24.6721 23.0061V22.9963C24.9743 22.4273 24.8719 21.8888 24.4358 21.5246C23.5625 20.7612 22.6181 20.0832 21.6156 19.4998C20.9443 19.1355 20.2621 19.356 19.9855 19.7252L19.3958 20.4684C19.0936 20.8375 18.5444 20.7863 18.5444 20.7863L18.5286 20.7962C14.4326 19.7498 13.34 15.6026 13.34 15.6026C13.34 15.6026 13.2888 15.0386 13.6678 14.7511L14.4061 14.1566C14.7594 13.8691 15.0055 13.1879 14.6266 12.5156C14.0471 11.5117 13.3706 10.5671 12.6066 9.69537C12.4396 9.48987 12.2053 9.35005 11.9451 9.30064L11.9471 9.30261Z" fill="#8DB338"/>
<path d="M18.8689 7.49989C18.4547 7.49989 18.1189 7.83568 18.1189 8.24989C18.1189 8.66411 18.4547 8.99989 18.8689 8.99989C20.7656 8.99989 22.3417 9.61987 23.5867 10.807C24.2277 11.4571 24.7266 12.2266 25.0542 13.0687C25.383 13.9139 25.5325 14.8153 25.4941 15.718C25.4765 16.1319 25.7978 16.4816 26.2116 16.4992C26.6254 16.5168 26.9752 16.1956 26.9928 15.7818C27.04 14.6711 26.8559 13.563 26.4521 12.5249C26.0483 11.4869 25.4337 10.541 24.6461 9.74461L24.631 9.73019C23.0861 8.25265 21.1277 7.49989 18.8689 7.49989Z" fill="#8DB338"/>
<path d="M18.8178 9.96638C18.4036 9.96638 18.0678 10.3022 18.0678 10.7164C18.0678 11.1306 18.4036 11.4664 18.8178 11.4664H18.8423C20.211 11.5628 21.2069 12.019 21.9051 12.7679C22.6198 13.5391 22.9901 14.4971 22.9627 15.6823C22.9531 16.0964 23.281 16.4399 23.6951 16.4495C24.1092 16.4591 24.4527 16.1312 24.4623 15.7171C24.4983 14.1608 23.9978 12.8189 23.0044 11.7474L23.0031 11.746C21.9881 10.6568 20.5958 10.0807 18.9183 9.96807L18.8932 9.96638H18.8178Z" fill="#8DB338"/>
<path d="M18.7894 12.4779C18.3758 12.4561 18.0228 12.7738 18.0011 13.1875C17.9793 13.6011 18.297 13.9541 18.7106 13.9758C19.3386 14.0089 19.7389 14.1972 19.9906 14.4514C20.2433 14.7067 20.4325 15.1154 20.4669 15.7562C20.4892 16.1698 20.8425 16.4871 21.2561 16.4649C21.6697 16.4426 21.987 16.0893 21.9648 15.6757C21.9164 14.7756 21.6347 13.9799 21.0564 13.3959C20.4769 12.8108 19.6857 12.5251 18.7894 12.4779Z" fill="#8DB338"/>
<path fill-rule="evenodd" clip-rule="evenodd" d="M10.6001 3.57511C15.3733 2.50817 20.3231 2.50817 25.0963 3.57511L25.6048 3.68878C28.45 4.32476 30.6956 6.507 31.4127 9.33281C32.6242 14.1071 32.6242 19.1083 31.4127 23.8826C30.6956 26.7084 28.45 28.8907 25.6048 29.5266L25.0963 29.6403C22.098 30.3105 19.03 30.5597 15.98 30.388L12.0001 33.9489C11.6946 34.2223 11.2644 34.3078 10.8775 34.172C10.4905 34.0362 10.2081 33.7006 10.1404 33.2962L9.48222 29.3642C6.92864 28.5707 4.94878 26.5034 4.28368 23.8826C3.07211 19.1083 3.07211 14.1071 4.28368 9.33281C5.0008 6.507 7.24638 4.32476 10.0916 3.68878L10.6001 3.57511ZM24.6054 5.77092C20.1555 4.77623 15.5409 4.77623 11.0909 5.77092L10.5824 5.88459C8.56513 6.33551 6.97299 7.88273 6.46455 9.88626C5.34515 14.2973 5.34515 18.9181 6.46455 23.3292C6.97299 25.3327 8.56513 26.8799 10.5824 27.3308L10.7167 27.3609C11.1635 27.4607 11.5053 27.8215 11.5809 28.273L12.0223 30.9099L14.8308 28.397C15.0576 28.1941 15.3569 28.0917 15.6604 28.1132C18.6506 28.3249 21.664 28.102 24.6054 27.4445L25.114 27.3308C27.1312 26.8799 28.7234 25.3327 29.2318 23.3292C30.3512 18.9181 30.3512 14.2973 29.2318 9.88626C28.7234 7.88273 27.1312 6.33551 25.114 5.88459L24.6054 5.77092Z" fill="#8DB338"/>
</g></symbol><symbol id="vk" viewBox="0 0 36 36"><g fill="none">
<path fill-rule="evenodd" clip-rule="evenodd" d="M35.1074 25.2975C34.2916 23.6542 33.2166 22.1532 31.9238 20.8519C31.4838 20.3405 30.9679 19.8357 30.5652 19.4417L30.5089 19.3867C30.3013 19.1834 30.1296 19.0147 29.9891 18.8693C31.7569 16.4111 33.2699 13.7789 34.5045 11.0133L34.5543 10.9018L34.5892 10.7846C34.7515 10.2403 34.9383 9.2052 34.2773 8.26976C33.594 7.30288 32.4999 7.12851 31.7673 7.12851H28.3967C27.694 7.0963 26.9982 7.28626 26.4087 7.67247C25.8147 8.06159 25.3603 8.62916 25.1103 9.29265C24.3844 11.0217 23.4761 12.6663 22.4021 14.199V10.249C22.4021 9.73845 22.354 8.88434 21.8073 8.16344C21.1527 7.30028 20.2061 7.12851 19.549 7.12851H14.2006C13.5116 7.11258 12.8414 7.35896 12.3264 7.81888C11.799 8.28989 11.4758 8.94781 11.4253 9.65314L11.4205 9.71996V9.78695C11.4205 10.5152 11.7091 11.0523 11.9396 11.3902C12.0428 11.5414 12.1532 11.6791 12.223 11.7661L12.2391 11.7861C12.3134 11.8788 12.3631 11.9407 12.4129 12.0085C12.5439 12.1867 12.7324 12.4615 12.7857 13.1726V15.382C11.8637 13.8663 10.891 11.8493 10.1591 9.69516L10.1479 9.6621L10.1355 9.62948C9.95297 9.15155 9.66029 8.45615 9.07411 7.924C8.38932 7.30232 7.57934 7.12851 6.84273 7.12851H3.42281C2.67759 7.12851 1.7792 7.30285 1.10885 8.00999C0.449659 8.70537 0.375 9.5386 0.375 9.98164V10.1813L0.417058 10.3765C1.36432 14.7732 3.31614 18.8905 6.11919 22.4065C7.39002 24.4106 9.11202 26.0904 11.1482 27.3113C13.2169 28.5517 15.5506 29.2828 17.9572 29.4446L18.02 29.4488H18.0829C19.1717 29.4488 20.3067 29.3548 21.1602 28.7861C22.3116 28.0188 22.4021 26.8404 22.4021 26.2532V24.5463C22.6975 24.7852 23.0642 25.1067 23.5129 25.5388C24.0555 26.0819 24.4874 26.5524 24.858 26.9631L25.0557 27.183L25.0569 27.1842C25.3446 27.5046 25.6278 27.82 25.8857 28.0792C26.2098 28.4051 26.6094 28.7641 27.1117 29.0294C27.6556 29.3166 28.2266 29.4465 28.8329 29.4465H32.2552C32.9762 29.4465 34.0103 29.276 34.7373 28.4331C35.5296 27.5145 35.4691 26.3886 35.22 25.5795L35.1752 25.4339L35.1074 25.2975ZM26.5286 25.4559C26.1433 25.0289 25.6788 24.5226 25.0918 23.9356L25.0869 23.9308C23.0527 21.9697 22.1023 21.6279 21.4301 21.6279C21.0727 21.6279 20.6772 21.668 20.4205 21.9878C20.2994 22.1387 20.2357 22.3207 20.2 22.5105C20.1644 22.7 20.1521 22.9224 20.1521 23.1758V26.2532C20.1521 26.6354 20.0893 26.7959 19.9125 26.9137C19.677 27.0706 19.1737 27.1978 18.0955 27.1988C16.049 27.0593 14.0646 26.4365 12.3052 25.3816C10.5423 24.3245 9.05563 22.8638 7.96781 21.1196L7.95597 21.1006L7.94196 21.0832C5.33006 17.8322 3.51004 14.0186 2.62545 9.94365C2.63025 9.74721 2.67281 9.63067 2.74176 9.55793C2.81281 9.48298 2.98498 9.37851 3.42281 9.37851H6.84273C7.22317 9.37851 7.42005 9.46127 7.56175 9.58991C7.7224 9.73575 7.86173 9.98341 8.03101 10.4256C8.87043 12.8946 10.0056 15.2035 11.0805 16.9013C11.6178 17.7498 12.1465 18.4561 12.6229 18.9553C12.8608 19.2044 13.094 19.4109 13.3165 19.5577C13.532 19.6998 13.7762 19.8118 14.0274 19.8118C14.1599 19.8118 14.3149 19.7982 14.4642 19.7321C14.6247 19.661 14.7494 19.5425 14.8374 19.3838C14.993 19.103 15.0357 18.687 15.0357 18.1421V13.0965L15.0349 13.0846C14.9572 11.8571 14.5866 11.1667 14.2257 10.6758C14.1466 10.5682 14.0686 10.471 14.0004 10.386L13.9817 10.3627C13.9068 10.2692 13.8471 10.1937 13.7981 10.1219C13.7084 9.99036 13.6736 9.89863 13.6707 9.80034C13.6824 9.68367 13.7374 9.57541 13.8251 9.49708C13.9162 9.41578 14.0353 9.37346 14.1572 9.37851H19.549C19.858 9.37851 19.9621 9.45393 20.0145 9.52302C20.0885 9.62056 20.1521 9.82339 20.1521 10.249V17.042C20.1521 17.8489 20.524 18.3951 21.0642 18.3951C21.6858 18.3951 22.1339 18.0179 22.9174 17.2344L22.9305 17.2213L22.9422 17.207C24.6984 15.0653 26.1337 12.6795 27.2021 10.1242L27.2089 10.105C27.2892 9.8792 27.4412 9.68588 27.6417 9.55455C27.8421 9.42322 28.0801 9.36108 28.3192 9.37762L28.3321 9.37851H31.7673C32.2358 9.37851 32.3899 9.49775 32.4398 9.56825C32.4928 9.64328 32.5297 9.80406 32.4395 10.1194C31.2079 12.874 29.6848 15.4887 27.8971 17.9195L27.8858 17.9368C27.7122 18.2022 27.5218 18.4958 27.4942 18.8331C27.4647 19.1952 27.6214 19.5244 27.8956 19.8772C28.0953 20.1727 28.5074 20.576 28.9254 20.9852L28.9648 21.0237C29.4031 21.4527 29.8779 21.9174 30.2591 22.3673L30.2693 22.3793L30.2804 22.3904C31.4166 23.5238 32.3614 24.8339 33.0781 26.2698C33.1924 26.6607 33.1224 26.8605 33.0335 26.9635C32.9294 27.0842 32.6965 27.1965 32.2552 27.1965H28.8329C28.5658 27.1965 28.3594 27.1438 28.1624 27.0397C27.957 26.9313 27.7457 26.7587 27.4809 26.4925C27.2676 26.278 27.0345 26.0186 26.7502 25.7021C26.6797 25.6237 26.6059 25.5416 26.5286 25.4559Z" fill="#8DB338"/>
</g></symbol><symbol id="whatsapp" viewBox="0 0 36 36"><g fill="none">
<path d="M13.3289 10.7548C13.6034 10.7621 13.9076 10.777 14.1971 11.4195C14.3891 11.8473 14.7124 12.6348 14.9759 13.2763C15.1808 13.7755 15.3495 14.1863 15.3917 14.2703C15.4882 14.4623 15.5475 14.6839 15.4214 14.9423C15.4065 14.9728 15.3925 15.002 15.379 15.03C15.2778 15.24 15.2058 15.3895 15.0356 15.5849C14.9656 15.6652 14.8927 15.7533 14.8201 15.841C14.6924 15.9954 14.5655 16.1487 14.4568 16.257C14.2639 16.4489 14.0634 16.6559 14.286 17.0399C14.5088 17.4239 15.2879 18.6868 16.438 19.706C17.6745 20.8068 18.7497 21.2708 19.2932 21.5053C19.3988 21.5508 19.4842 21.5877 19.547 21.6189C19.9329 21.8109 20.1629 21.7813 20.3855 21.5229C20.6082 21.2643 21.3501 20.4002 21.6099 20.0162C21.8622 19.6322 22.1218 19.6913 22.4781 19.8242C22.8342 19.9571 24.7338 20.8877 25.1196 21.0797C25.1958 21.1176 25.2672 21.1519 25.3333 21.1836C25.6017 21.3123 25.7842 21.3998 25.8616 21.5303C25.9581 21.6927 25.9581 22.4608 25.639 23.3618C25.3126 24.2629 23.7394 25.127 23.0271 25.1934C22.9596 25.1998 22.8925 25.2079 22.8235 25.2163C22.1706 25.2952 21.3419 25.3955 18.3894 24.2333C14.7514 22.8027 12.3498 19.2531 11.8643 18.5355C11.826 18.4788 11.7996 18.4398 11.7855 18.4209L11.7772 18.4099C11.5563 18.1143 10.2049 16.306 10.2049 14.4403C10.2049 12.6552 11.0843 11.7259 11.4853 11.302C11.5108 11.2751 11.5343 11.2503 11.5555 11.2274C11.9116 10.8434 12.3272 10.7474 12.5869 10.7474C12.8467 10.7474 13.1063 10.7474 13.3289 10.7548Z" fill="#8DB338"/>
<path fill-rule="evenodd" clip-rule="evenodd" d="M3.27627 31.9971C3.15355 32.4426 3.55928 32.8538 4.00635 32.737L10.9174 30.9319C13.0989 32.1136 15.555 32.7413 18.0557 32.7413H18.0631C26.2921 32.7413 33 26.0722 33 17.8744C33 13.901 31.449 10.1639 28.6294 7.35736C25.8098 4.55095 22.0625 3 18.063 3C9.83411 3 3.12616 9.66908 3.12616 17.867C3.12523 20.475 3.8136 23.0373 5.12219 25.2967L3.27627 31.9971ZM7.29137 25.8943C7.4516 25.3127 7.37156 24.6911 7.06921 24.1691C5.95898 22.2521 5.37537 20.0782 5.37616 17.867C5.37616 10.9224 11.0661 5.25 18.063 5.25C21.4678 5.25 24.6444 6.56548 27.0422 8.95208C29.4372 11.336 30.75 14.4992 30.75 17.8744C30.75 24.8189 25.0601 30.4913 18.0631 30.4913H18.0557C15.9309 30.4913 13.8429 29.9577 11.989 28.9535C11.4872 28.6817 10.9009 28.6107 10.3487 28.7549L6.20514 29.8372L7.29137 25.8943Z" fill="#8DB338"/>
</g></symbol><symbol id="yandex" viewBox="0 0 36 36"><g fill="none">
<path fill-rule="evenodd" clip-rule="evenodd" d="M18 3C9.71573 3 3 9.71573 3 18C3 26.2843 9.71573 33 18 33C26.2843 33 33 26.2843 33 18C33 9.71573 26.2843 3 18 3ZM5.57143 18C5.57143 11.1359 11.1359 5.57143 18 5.57143C24.8641 5.57143 30.4286 11.1359 30.4286 18C30.4286 24.8641 24.8641 30.4286 18 30.4286C11.1359 30.4286 5.57143 24.8641 5.57143 18Z" fill="#8DB338"/>
<path d="M19.8604 12.5279H18.6936C16.5546 12.5279 15.4295 13.6114 15.4295 15.2087C15.4295 17.0144 16.2073 17.8605 17.8047 18.9452L19.1242 19.8341L15.3322 25.5H12.4987L15.9017 20.4314C13.9445 19.0285 12.8459 17.666 12.8459 15.3615C12.8459 12.4724 14.86 10.5 18.6797 10.5H22.4717V25.4861H19.8604V12.5279Z" fill="#8DB338"/>
</g></symbol></svg>